# xmcd CD database file
#
# Track frame offsets:
#	150
#	11945
#	25650
#	38995
#	56775
#	69837
#	82352
#	92425
#	103970
#	120612
#	137005
#	154832
#	167505
#
# Disc length: 2494 seconds
#
# Revision: 0
# Processed by: cddbd v1.5PL3 Copyright (c) Steve Scherf et al.
# Submitted via: CDex 1.51
#
DISCID=ab09bc0d
DTITLE=Joja Wendt - The Art Of Early Jazz Piano
DYEAR=1996
DGENRE=Jazz
TTITLE0=Pelican Stomp
TTITLE1=Swinging The Boogie
TTITLE2=Emaline
TTITLE3=Suitcase Blues
TTITLE4=Handful Of Keys
TTITLE5=Bugle Call
TTITLE6=Randini's Boogie
TTITLE7=Passionette
TTITLE8=Rollem'
TTITLE9=Pinetops Boogie Woogie
TTITLE10=Galapagos
TTITLE11=Boogie Through The Keys
TTITLE12=At Home
EXTD=YEAR: 1996
EXTT0=
EXTT1=
EXTT2=
EXTT3=
EXTT4=
EXTT5=
EXTT6=
EXTT7=
EXTT8=
EXTT9=
EXTT10=
EXTT11=
EXTT12=
PLAYORDER=
